
<svg width="45px" height="46px" viewBox="0 0 45 46" version="1.1" xmlns="http://www.w3.org/2000/svg" xmlns:xlink="http://www.w3.org/1999/xlink">
    <!-- Generator: Sketch 50.2 (55047) - http://www.bohemiancoding.com/sketch -->
    <desc>Created with Sketch.</desc>
    <defs>
        <path d="M16.3877778,1.23358114e-15 C13.3933333,1.23358114e-15 10.9433333,2.5 10.9433333,5.55555556 L10.9433333,11.1111111 L0.544444444,11.1111111 C0.217777778,11.1111111 0.0544444444,11.3333333 0.0544444444,11.6111111 L0.0544444444,25 C0.0544444444,26.5555556 1.25222222,27.7777778 2.77666667,27.7777778 L40.8877778,27.7777778 C42.4122222,27.7777778 43.61,26.5555556 43.61,25 L43.61,11.6111111 C43.61,11.2777778 43.3922222,11.1111111 43.12,11.1111111 L32.7211111,11.1111111 L32.7211111,5.55555556 C32.7211111,2.5 30.2711111,0 27.2766667,0 L16.3877778,1.23358114e-15 Z M16.3877778,5.55555556 L27.2766667,5.55555556 L27.2766667,11.1111111 L16.3877778,11.1111111 L16.3877778,5.55555556 Z M0.0544444444,32.8333333 L0.0544444444,43.9444444 C0.0544444444,44.2222222 0.272222222,44.4444444 0.544444444,44.4444444 L43.0655556,44.4444444 C43.3377778,44.4444444 43.5555556,44.2222222 43.5555556,43.9444444 L43.5555556,32.8333333 C42.6844444,33.1666667 41.8133333,33.3333333 40.8333333,33.3333333 L2.72222222,33.3333333 C1.74222222,33.3333333 0.871111111,33.1111111 0,32.8333333 L0.0544444444,32.8333333 Z" id="path-1"></path>
    </defs>
    <g id="Page-7" stroke="none" stroke-width="1" fill="none" fill-rule="evenodd">
        <g id="icons/briefcase" transform="translate(-2.000000, -2.000000)">
            <g id="icons/dark/briefcase" transform="translate(2.722222, 2.777778)">
                <mask id="mask-2" fill="white">
                    <use xlink:href="#path-1"></use>
                </mask>
                <use id="Mask" fill="#212B36" fill-rule="nonzero" xlink:href="#path-1"></use>
                <g id="color/main" mask="url(#mask-2)" fill="#212B36">
                    <g transform="translate(-2.722222, -2.777778)">
                        <rect x="0" y="0" width="49" height="50" rx="4"></rect>
                    </g>
                </g>
            </g>
        </g>
    </g>
</svg>
